# xmcd CD database file
#
# Track frame offsets:
#	150
#	19130
#	39941
#	53218
#	80959
#	104140
#	120581
#	138350
#	157582
#
# Disc length: 2321 seconds
#
# Revision: 0
# Processed by: cddbd v1.5.1PL0 Copyright (c) Steve Scherf et al.
# Submitted via: CDex 1.51
#
DISCID=70090f09
DTITLE=Tim Beattie and Big Dog - Tim Beattie and Big Dog
DYEAR=2004
DGENRE=Country
TTITLE0=Baby Blue
TTITLE1=Roots
TTITLE2=Priceless
TTITLE3=Lost Highway
TTITLE4=These Arms
TTITLE5=Gone
TTITLE6=Better Man
TTITLE7=110
TTITLE8=When to Let Go
EXTD=YEAR: 2004
EXTT0=
EXTT1=
EXTT2=
EXTT3=
EXTT4=
EXTT5=
EXTT6=
EXTT7=
EXTT8=
PLAYORDER=
